<?xml version="1.0" encoding="UTF-8"?>
<svg width="16px" height="16px" viewBox="0 0 16 16" version="1.1" xmlns="http://www.w3.org/2000/svg" xmlns:xlink="http://www.w3.org/1999/xlink">
    <title>Favicon Export/safari-pinned-tab</title>
    <g id="Favicon" stroke="none" stroke-width="1" fill="none" fill-rule="evenodd">
        <g id="Safari-Pinned-Tab" transform="translate(-150.000000, -424.000000)" fill="#000000">
            <g id="Useless-Layers" transform="translate(149.000000, 150.000000)">
                <g id="Export" transform="translate(1.000000, 274.000000)">
                    <path d="M3.65015625,3.65015625 C6.3914974,0.90828125 10.836901,0.90828125 13.578776,3.65015625 L13.578776,3.65015625 L14.40625,4.47763021 L13.2162891,5.66705729 L12.4614193,4.9121875 C12.2532161,4.70398437 11.9152865,4.70398437 11.7065495,4.9121875 C11.4978125,5.12039062 11.4978125,5.45832031 11.7065495,5.66705729 L11.7065495,5.66705729 L12.4608854,6.42299479 L10.9511458,7.93273437 L10.196276,7.17786458 C9.98807292,6.9691276 9.65014323,6.96966146 9.44140625,7.17786458 C9.23266927,7.38606771 9.23266927,7.7239974 9.44140625,7.93273437 L9.44140625,7.93273437 L10.196276,8.68760417 L8.68653646,10.1973437 L7.93166667,9.44247396 C7.72346354,9.23373698 7.38553385,9.23427083 7.17679688,9.44247396 C6.9680599,9.65067708 6.9680599,9.98860677 7.17679688,10.1973437 L7.17679688,10.1973437 L7.93166667,10.9522135 L6.42192708,12.4619531 L5.66705729,11.7070833 C5.45885417,11.4983464 5.12092448,11.4988802 4.9121875,11.7070833 C4.70345052,11.9152865 4.70345052,12.2532161 4.9121875,12.4619531 L4.9121875,12.4619531 L5.66705729,13.2168229 L4.47763021,14.40625 L3.65015625,13.578776 C0.90828125,10.8374349 0.90828125,6.39203125 3.65015625,3.65015625 Z M10.3147917,4.03880208 C8.57976562,3.39710937 6.55165365,3.76813802 5.15989583,5.15989583 C3.76813802,6.55165365 3.39710937,8.57976562 4.03880208,10.3147917 L4.03880208,10.3147917 Z" id="Safari-Pinned-Tab"></path>
                </g>
            </g>
        </g>
    </g>
</svg>