<?xml version="1.0" standalone="no"?>
<!DOCTYPE svg PUBLIC "-//W3C//DTD SVG 20010904//EN"
 "http://www.w3.org/TR/2001/REC-SVG-20010904/DTD/svg10.dtd">
<svg version="1.0" xmlns="http://www.w3.org/2000/svg"
 width="1024.000000pt" height="1024.000000pt" viewBox="0 0 1024.000000 1024.000000"
 preserveAspectRatio="xMidYMid meet">
<metadata>
Created by potrace 1.14, written by Peter Selinger 2001-2017
</metadata>
<g transform="translate(0.000000,1024.000000) scale(0.100000,-0.100000)"
fill="#000000" stroke="none">
<path d="M0 5120 l0 -5120 5120 0 5120 0 0 5120 0 5120 -5120 0 -5120 0 0
-5120z m6917 5103 c-9 -2 -15 -9 -12 -14 6 -9 -7 -13 -32 -10 -6 1 -14 -2 -17
-7 -3 -5 6 -8 19 -6 14 1 27 -2 30 -6 3 -5 -4 -7 -16 -5 -15 3 -19 0 -15 -11
3 -8 2 -13 -3 -10 -4 3 -16 -3 -26 -14 -10 -11 -14 -20 -9 -20 11 0 -17 -20
-29 -20 -4 0 1 10 13 22 11 12 17 24 15 27 -7 6 -41 -41 -37 -51 1 -5 -5 -9
-13 -9 -28 -3 -33 -4 -41 -11 -3 -4 3 -5 15 -3 12 2 19 0 16 -6 -4 -5 -13 -9
-21 -9 -8 0 -12 -4 -9 -10 6 -10 -7 -14 -32 -11 -6 1 -14 -2 -17 -7 -3 -5 6
-8 19 -6 14 1 27 -2 30 -6 3 -5 -4 -7 -16 -5 -15 3 -19 0 -15 -11 3 -8 2 -13
-3 -10 -4 3 -16 -3 -26 -14 -10 -11 -14 -20 -9 -20 11 0 -17 -20 -29 -20 -4 0
1 10 13 22 11 12 17 24 15 27 -7 6 -41 -41 -37 -51 1 -5 -5 -9 -13 -9 -28 -3
-33 -4 -41 -11 -3 -4 3 -5 15 -3 12 2 19 0 16 -6 -4 -5 -13 -9 -21 -9 -8 0
-12 -4 -9 -10 6 -10 -7 -14 -32 -11 -6 1 -14 -2 -17 -7 -3 -5 6 -8 19 -6 14 1
27 -2 30 -6 3 -5 -4 -7 -16 -5 -15 3 -19 0 -15 -11 3 -8 2 -13 -3 -10 -4 3
-16 -3 -26 -14 -10 -11 -14 -20 -9 -20 11 0 -17 -20 -29 -20 -4 0 1 10 13 22
11 12 17 24 15 27 -7 6 -41 -41 -37 -51 1 -5 -5 -9 -13 -9 -28 -3 -33 -4 -41
-11 -3 -4 3 -5 15 -3 12 2 19 0 16 -6 -4 -5 -13 -9 -21 -9 -8 0 -12 -4 -9 -10
6 -10 -7 -14 -32 -11 -6 1 -14 -2 -17 -7 -3 -5 6 -8 19 -6 14 1 27 -2 30 -6 3
-5 -4 -7 -16 -5 -15 3 -19 0 -15 -11 3 -8 2 -13 -3 -10 -4 3 -16 -3 -26 -14
-10 -11 -14 -20 -9 -20 11 0 -17 -20 -29 -20 -4 0 1 10 13 22 11 12 17 24 15
27 -7 6 -41 -41 -37 -51 1 -5 -5 -9 -13 -9 -28 -3 -33 -4 -41 -11 -3 -4 3 -5
15 -3 12 2 19 0 16 -6 -4 -5 -13 -9 -21 -9 -8 0 -12 -4 -9 -10 6 -10 -7 -14
-32 -11 -6 1 -14 -2 -17 -7 -3 -5 6 -8 19 -6 14 1 27 -2 30 -6 3 -5 -4 -7 -16
-5 -15 3 -19 0 -15 -11 3 -8 2 -13 -3 -10 -4 3 -16 -3 -26 -14 -10 -11 -14
-20 -9 -20 11 0 -17 -20 -29 -20 -4 0 1 10 13 22 11 12 17 24 15 27 -7 6 -41
-41 -37 -51 1 -5 -5 -9 -13 -9 -28 -3 -33 -4 -41 -11 -3 -4 3 -5 15 -3 12 2
19 0 16 -6 -4 -5 -13 -9 -21 -9 -8 0 -12 -4 -9 -10 6 -10 -7 -14 -32 -11 -6 1
-14 -2 -17 -7 -3 -5 6 -8 19 -6 14 1 27 -2 30 -6 3 -5 -4 -7 -16 -5 -15 3 -19
0 -15 -11 3 -8 2 -13 -3 -10 -4 3 -16 -3 -26 -14 -10 -11 -14 -20 -9 -20 11 0
-17 -20 -29 -20 -4 0 1 10 13 22 11 12 17 24 15 27 -7 6 -41 -41 -37 -51 1 -5
-5 -9 -13 -9 -28 -3 -33 -4 -41 -11 -3 -4 3 -5 15 -3 12 2 19 0 16 -6 -4 -5
-13 -9 -21 -9 -8 0 -12 -4 -9 -10 6 -10 -7 -14 -32 -11 -6 1 -14 -2 -17 -7 -3
-5 6 -8 19 -6 14 1 27 -2 30 -6 3 -5 -4 -7 -16 -5 -15 3 -19 0 -15 -11 3 -8 2
-13 -3 -10 -4 3 -16 -3 -26 -14 -10 -11 -14 -20 -9 -20 11 0 -17 -20 -29 -20
-4 0 1 10 13 22 11 12 17 24 15 27 -7 6 -41 -41 -37 -51 1 -5 -5 -9 -13 -9
-28 -3 -33 -4 -41 -11 -3 -4 3 -5 15 -3 12 2 19 0 16 -6 -4 -5 -13 -9 -21 -9
-8 0 -12 -4 -9 -10 6 -10 -7 -14 -32 -11 -6 1 -14 -2 -17 -7 -3 -5 6 -8 19 -6
14 1 27 -2 30 -6 3 -5 -4 -7 -16 -5 -15 3 -19 0 -15 -11 3 -8 2 -13 -3 -10 -4
3 -16 -3 -26 -14 -10 -11 -14 -20 -9 -20 11 0 -17 -20 -29 -20 -4 0 1 10 13
22 11 12 17 24 15 27 -7 6 -41 -41 -37 -51 1 -5 -5 -9 -13 -9 -28 -3 -33 -4
-41 -11 -3 -4 3 -5 15 -3 12 2 19 0 16 -6 -4 -5 -13 -9 -21 -9 -8 0 -12 -4 -9
-10 6 -10 -7 -14 -32 -11 -6 1 -14 -2 -17 -7 -3 -5 6 -8 19 -6 14 1 27 -2 30
-6 3 -5 -4 -7 -16 -5 -15 3 -19 0 -15 -11 3 -8 2 -13 -3 -10 -4 3 -16 -3 -26
-14 -10 -11 -14 -20 -9 -20 11 0 -17 -20 -29 -20 -4 0 1 10 13 22 11 12 17 24
15 27 -7 6 -41 -41 -37 -51 1 -5 -5 -9 -13 -9 -28 -3 -33 -4 -41 -11 -3 -4 3
-5 15 -3 12 2 19 0 16 -6 -4 -5 -13 -9 -21 -9 -8 0 -12 -4 -9 -10 6 -10 -7
-14 -32 -11 -6 1 -14 -2 -17 -7 -3 -5 6 -8 19 -6 14 1 27 -2 30 -6 3 -5 -4 -7
-16 -5 -15 3 -19 0 -15 -11 3 -8 2 -13 -3 -10 -4 3 -16 -3 -26 -14 -10 -11
-14 -20 -9 -20 11 0 -17 -20 -29 -20 -4 0 1 10 13 22 11 12 17 24 15 27 -7 6
-41 -41 -37 -51 1 -5 -5 -9 -13 -9 -28 -3 -33 -4 -41 -11 -3 -4 3 -5 15 -3 12
2 19 0 16 -6 -4 -5 -13 -9 -21 -9 -8 0 -12 -4 -9 -10 6 -10 -7 -14 -32 -11 -6
1 -14 -2 -17 -7 -3 -5 6 -8 19 -6 14 1 27 -2 30 -6 3 -5 -4 -7 -16 -5 -15 3
-19 0 -15 -11 3 -8 2 -13 -3 -10 -4 3 -16 -3 -26 -14 -10 -11 -14 -20 -9 -20
11 0 -17 -20 -29 -20 -4 0 1 10 13 22 11 12 17 24 15 27 -7 6 -41 -41 -37 -51
1 -5 -5 -9 -13 -9 -28 -3 -33 -4 -41 -11 -3 -4 3 -5 15 -3 12 2 19 0 16 -6 -4
-5 -13 -9 -21 -9 -8 0 -12 -4 -9 -10 6 -10 -7 -14 -32 -11 -6 1 -14 -2 -17 -7
-3 -5 6 -8 19 -6 14 1 27 -2 30 -6 3 -5 -4 -7 -16 -5 -15 3 -19 0 -15 -11 3
-8 2 -13 -3 -10 -4 3 -16 -3 -26 -14 -10 -11 -14 -20 -9 -20 11 0 -17 -20 -29
-20 -4 0 1 10 13 22 11 12 17 24 15 27 -7 6 -41 -41 -37 -51 1 -5 -5 -9 -13
-9 -28 -3 -33 -4 -41 -11 -3 -4 3 -5 15 -3 12 2 19 0 16 -6 -4 -5 -13 -9 -21
-9 -8 0 -12 -4 -9 -10 6 -10 -7 -14 -32 -11 -6 1 -14 -2 -17 -7 -3 -5 6 -8 19
-6 14 1 27 -2 30 -6 3 -5 -4 -7 -16 -5 -15 3 -19 0 -15 -11 3 -8 2 -13 -3 -10
-4 3 -16 -3 -26 -14 -10 -11 -14 -20 -9 -20 11 0 -17 -20 -29 -20 -4 0 1 10
13 22 11 12 17 24 15 27 -7 6 -41 -41 -37 -51 1 -5 -5 -9 -13 -9 -28 -3 -33
-4 -41 -11 -3 -4 3 -5 15 -3 12 2 19 0 16 -6 -4 -5 -13 -9 -21 -9 -8 0 -12 -4
-9 -10 6 -10 -7 -14 -32 -11 -6 1 -14 -2 -17 -7 -3 -5 6 -8 19 -6 14 1 27 -2
30 -6 3 -5 -4 -7 -16 -5 -15 3 -19 0 -15 -11 3 -8 2 -13 -3 -10 -4 3 -16 -3
-26 -14 -10 -11 -14 -20 -9 -20 11 0 -17 -20 -29 -20 -4 0 1 10 13 22 11 12
17 24 15 27 -7 6 -41 -41 -37 -51 1 -5 -5 -9 -13 -9 -28 -3 -33 -4 -41 -11 -3
-4 3 -5 15 -3 12 2 19 0 16 -6 -4 -5 -13 -9 -21 -9 -8 0 -12 -4 -9 -10 6 -10
-7 -14 -32 -11 -6 1 -14 -2 -17 -7 -3 -5 6 -8 19 -6 14 1 27 -2 30 -6 3 -5 -4
-7 -16 -5 -15 3 -19 0 -15 -11 3 -8 2 -13 -3 -10 -4 3 -16 -3 -26 -14 -10 -11
-14 -20 -9 -20 11 0 -17 -20 -29 -20 -4 0 1 10 13 22 11 12 17 24 15 27 -7 6
-41 -41 -37 -51 1 -5 -5 -9 -13 -9 -28 -3 -33 -4 -41 -11 -3 -4 3 -5 15 -3 12
2 19 0 16 -6 -4 -5 -14 -9 -23 -9 -12 0 -13 -3 -4 -12 9 -9 17 -9 35 1 13 7
34 14 48 16 13 2 58 11 99 20 257 55 445 75 696 75 106 0 238 -5 295 -10 584
-59 1139 -281 1595 -636 106 -83 301 -263 494 -458 l155 -156 -263 -262 -262
-263 -182 182 c-116 115 -197 188 -220 198 -46 19 -138 20 -181 2 -85 -36
-138 -117 -138 -211 0 -90 18 -117 214 -314 l182 -182 -332 -332 -333 -333
-182 182 c-114 113 -197 188 -220 198 -21 8 -63 15 -95 15 -130 0 -224 -95
-224 -225 0 -89 18 -116 214 -313 l182 -182 -333 -332 -332 -333 -182 182
c-116 115 -197 188 -220 198 -46 19 -138 20 -181 2 -84 -36 -138 -118 -138
-210 0 -91 18 -118 214 -315 l182 -182 -332 -332 -333 -333 -187 186 c-208
206 -220 214 -328 207 -116 -7 -196 -87 -203 -203 -7 -108 1 -120 207 -328
l186 -187 -263 -263 -262 -262 -156 155 c-385 382 -558 597 -723 896 -253 459
-381 953 -381 1480 0 245 20 454 64 654 7 30 12 64 12 75 -1 11 2 22 5 25 4 3
10 16 14 30 l8 25 -24 -20 -24 -20 22 25 c29 33 32 52 10 55 -13 3 -17 -1 -13
-11 3 -8 2 -13 -3 -10 -4 3 -16 -3 -26 -14 -10 -11 -14 -20 -9 -20 11 0 -17
-20 -29 -20 -4 0 1 10 13 22 11 12 17 24 15 27 -7 6 -41 -41 -37 -51 1 -5 -5
-9 -13 -9 -28 -3 -33 -4 -41 -11 -3 -4 3 -5 15 -3 12 2 19 0 16 -6 -4 -5 -13
-9 -21 -9 -8 0 -12 -4 -9 -10 6 -10 -7 -14 -32 -11 -6 1 -14 -2 -17 -7 -3 -5
6 -8 19 -6 14 1 27 -2 30 -6 3 -5 -4 -7 -16 -5 -15 3 -19 0 -15 -11 3 -8 2
-13 -3 -10 -4 3 -16 -3 -26 -14 -10 -11 -14 -20 -9 -20 11 0 -17 -20 -29 -20
-4 0 1 10 13 22 11 12 17 24 15 27 -7 6 -41 -41 -37 -51 1 -5 -5 -9 -13 -9
-28 -3 -33 -4 -41 -11 -3 -4 3 -5 15 -3 12 2 19 0 16 -6 -4 -5 -13 -9 -21 -9
-8 0 -12 -4 -9 -10 6 -10 -7 -14 -32 -11 -6 1 -14 -2 -17 -7 -3 -5 6 -8 19 -6
14 1 27 -2 30 -6 3 -5 -4 -7 -16 -5 -15 3 -19 0 -15 -11 3 -8 2 -13 -3 -10 -4
3 -16 -3 -26 -14 -10 -11 -14 -20 -9 -20 11 0 -17 -20 -29 -20 -4 0 1 10 13
22 11 12 17 24 15 27 -7 6 -41 -41 -37 -51 1 -5 -5 -9 -13 -9 -28 -3 -33 -4
-41 -11 -3 -4 3 -5 15 -3 12 2 19 0 16 -6 -4 -5 -13 -9 -21 -9 -8 0 -12 -4 -9
-10 6 -10 -7 -14 -32 -11 -6 1 -14 -2 -17 -7 -3 -5 6 -8 19 -6 14 1 27 -2 30
-6 3 -5 -4 -7 -16 -5 -15 3 -19 0 -15 -11 3 -8 2 -13 -3 -10 -4 3 -16 -3 -26
-14 -10 -11 -14 -20 -9 -20 11 0 -17 -20 -29 -20 -4 0 1 10 13 22 11 12 17 24
15 27 -7 6 -41 -41 -37 -51 1 -5 -5 -9 -13 -9 -28 -3 -33 -4 -41 -11 -3 -4 3
-5 15 -3 12 2 19 0 16 -6 -4 -5 -13 -9 -21 -9 -8 0 -12 -4 -9 -10 6 -10 -7
-14 -32 -11 -6 1 -14 -2 -17 -7 -3 -5 6 -8 19 -6 14 1 27 -2 30 -6 3 -5 -4 -7
-16 -5 -15 3 -19 0 -15 -11 3 -8 2 -13 -3 -10 -4 3 -16 -3 -26 -14 -10 -11
-14 -20 -9 -20 11 0 -17 -20 -29 -20 -4 0 1 10 13 22 11 12 17 24 15 27 -7 6
-41 -41 -37 -51 1 -5 -5 -9 -13 -9 -28 -3 -33 -4 -41 -11 -3 -4 3 -5 15 -3 12
2 19 0 16 -6 -4 -5 -13 -9 -21 -9 -8 0 -12 -4 -9 -10 6 -10 -7 -14 -32 -11 -6
1 -14 -2 -17 -7 -3 -5 6 -8 19 -6 14 1 27 -2 30 -6 3 -5 -4 -7 -16 -5 -15 3
-19 0 -15 -11 3 -8 2 -13 -3 -10 -4 3 -16 -3 -26 -14 -10 -11 -14 -20 -9 -20
11 0 -17 -20 -29 -20 -4 0 1 10 13 22 11 12 17 24 15 27 -7 6 -41 -41 -37 -51
1 -5 -5 -9 -13 -9 -28 -3 -33 -4 -41 -11 -3 -4 3 -5 15 -3 12 2 19 0 16 -6 -4
-5 -13 -9 -21 -9 -8 0 -12 -4 -9 -10 6 -10 -7 -14 -32 -11 -6 1 -14 -2 -17 -7
-3 -5 6 -8 19 -6 14 1 27 -2 30 -6 3 -5 -4 -7 -16 -5 -15 3 -19 0 -15 -11 3
-8 2 -13 -3 -10 -4 3 -16 -3 -26 -14 -10 -11 -14 -20 -9 -20 11 0 -17 -20 -29
-20 -4 0 1 10 13 22 11 12 17 24 15 27 -7 6 -41 -41 -37 -51 1 -5 -5 -9 -13
-9 -28 -3 -33 -4 -41 -11 -3 -4 3 -5 15 -3 12 2 19 0 16 -6 -4 -5 -13 -9 -21
-9 -8 0 -12 -4 -9 -10 6 -10 -7 -14 -32 -11 -6 1 -14 -2 -17 -7 -3 -5 6 -8 19
-6 14 1 27 -2 30 -6 3 -5 -4 -7 -16 -5 -15 3 -19 0 -15 -11 3 -8 2 -13 -3 -10
-4 3 -16 -3 -26 -14 -10 -11 -14 -20 -9 -20 11 0 -17 -20 -29 -20 -4 0 1 10
13 22 11 12 17 24 15 27 -7 6 -41 -41 -37 -51 1 -5 -5 -9 -13 -9 -28 -3 -33
-4 -41 -11 -3 -4 3 -5 15 -3 12 2 19 0 16 -6 -4 -5 -13 -9 -21 -9 -8 0 -12 -4
-9 -10 6 -10 -7 -14 -32 -11 -6 1 -14 -2 -17 -7 -3 -5 6 -8 19 -6 14 1 27 -2
30 -6 3 -5 -4 -7 -16 -5 -15 3 -19 0 -15 -11 3 -8 2 -13 -3 -10 -4 3 -16 -3
-26 -14 -10 -11 -14 -20 -9 -20 11 0 -17 -20 -29 -20 -4 0 1 10 13 22 11 12
17 24 15 27 -7 6 -41 -41 -37 -51 1 -5 -5 -9 -13 -9 -28 -3 -33 -4 -41 -11 -3
-4 3 -5 15 -3 12 2 19 0 16 -6 -4 -5 -13 -9 -21 -9 -8 0 -12 -4 -9 -10 6 -10
-7 -14 -32 -11 -6 1 -14 -2 -17 -7 -3 -5 6 -8 19 -6 14 1 27 -2 30 -6 3 -5 -4
-7 -16 -5 -15 3 -19 0 -15 -11 3 -8 2 -13 -3 -10 -4 3 -16 -3 -26 -14 -10 -11
-14 -20 -9 -20 11 0 -17 -20 -29 -20 -4 0 1 10 13 22 11 12 17 24 15 27 -7 6
-41 -41 -37 -51 1 -5 -5 -9 -13 -9 -28 -3 -33 -4 -41 -11 -3 -4 3 -5 15 -3 12
2 19 0 16 -6 -4 -5 -13 -9 -21 -9 -8 0 -12 -5 -9 -10 6 -10 -7 -14 -32 -11 -6
1 -14 -2 -17 -7 -3 -5 6 -8 19 -6 14 1 27 -2 30 -6 3 -5 -4 -7 -16 -5 -15 3
-19 0 -15 -11 3 -8 2 -13 -3 -10 -4 3 -16 -3 -26 -14 -10 -11 -14 -20 -9 -20
11 0 -17 -20 -29 -20 -4 0 1 10 13 22 11 12 17 24 15 27 -7 6 -41 -41 -37 -51
1 -5 -5 -9 -13 -9 -28 -3 -33 -4 -41 -11 -3 -4 3 -5 15 -3 12 2 19 0 16 -6 -4
-5 -13 -9 -21 -9 -8 0 -12 -4 -9 -10 6 -10 -7 -14 -32 -11 -6 1 -14 -2 -17 -7
-3 -5 6 -8 19 -6 14 1 27 -2 30 -6 3 -5 -4 -7 -16 -5 -15 3 -19 0 -15 -11 3
-8 2 -13 -3 -10 -4 3 -16 -3 -26 -14 -10 -11 -14 -20 -9 -20 11 0 -17 -20 -29
-20 -4 0 1 10 13 22 11 12 17 24 15 27 -7 6 -41 -41 -37 -52 1 -4 -5 -8 -13
-8 -28 -3 -33 -4 -41 -11 -3 -4 3 -5 15 -3 12 2 19 0 16 -6 -4 -5 -13 -9 -21
-9 -8 0 -12 -4 -9 -10 6 -10 -7 -14 -32 -11 -6 1 -14 -2 -17 -7 -3 -5 6 -8 19
-6 14 1 27 -2 30 -6 3 -5 -4 -7 -16 -5 -15 3 -19 0 -15 -11 3 -8 2 -13 -3 -10
-4 3 -16 -3 -26 -14 -10 -11 -14 -20 -9 -20 11 0 -17 -20 -29 -20 -4 0 1 10
13 22 11 12 17 24 15 27 -7 6 -41 -41 -37 -51 1 -5 -5 -9 -13 -9 -28 -3 -33
-4 -41 -11 -3 -4 3 -5 15 -3 12 2 19 0 16 -6 -4 -5 -13 -9 -21 -9 -8 0 -12 -4
-9 -10 6 -10 -7 -14 -32 -11 -6 1 -14 -2 -17 -7 -3 -5 6 -8 19 -6 14 1 27 -2
30 -6 3 -5 -4 -7 -16 -5 -15 3 -19 0 -15 -11 3 -8 2 -13 -3 -10 -4 3 -16 -3
-26 -14 -10 -11 -14 -20 -9 -20 11 0 -17 -20 -29 -20 -4 0 1 10 13 22 11 12
17 24 15 27 -7 6 -41 -41 -37 -51 1 -5 -5 -9 -13 -9 -28 -3 -33 -4 -41 -11 -3
-4 3 -5 15 -3 12 2 19 0 16 -6 -4 -5 -13 -9 -21 -9 -8 0 -12 -4 -9 -10 6 -10
-7 -14 -32 -11 -6 1 -14 -2 -17 -7 -3 -5 6 -8 19 -6 14 1 27 -2 30 -6 3 -5 -4
-7 -16 -5 -15 3 -19 0 -15 -11 3 -8 2 -13 -3 -10 -4 3 -16 -3 -26 -14 -10 -11
-14 -20 -9 -20 11 0 -17 -20 -29 -20 -4 0 1 10 13 22 11 12 17 24 15 27 -7 6
-41 -41 -37 -51 1 -5 -5 -9 -13 -9 -28 -3 -33 -4 -41 -11 -3 -4 3 -5 15 -3 12
2 19 0 16 -6 -4 -5 -13 -9 -21 -9 -8 0 -12 -4 -9 -10 3 -5 1 -10 -4 -10 -8 0
-11 1030 -11 3455 l0 3455 3463 -1 c1904 -1 3454 -3 3444 -6z m113 -8 c11 -13
10 -14 -4 -9 -9 3 -16 10 -16 15 0 13 6 11 20 -6z m-49 -12 c13 -17 13 -17 -6
-3 -11 8 -22 16 -24 17 -2 2 0 3 6 3 6 0 17 -8 24 -17z m-19 -17 c7 4 8 2 4
-5 -9 -13 -26 -5 -25 12 0 9 2 8 6 -1 2 -6 10 -9 15 -6z m25 -21 c0 -8 -4 -12
-9 -9 -5 3 -6 10 -3 15 9 13 12 11 12 -6z m-42 -25 c3 -6 -1 -7 -9 -4 -18 7
-21 14 -7 14 6 0 13 -4 16 -10z m-39 -12 c4 -7 3 -10 -1 -5 -5 4 -18 -1 -29
-10 -21 -18 -21 -18 -2 5 22 26 23 26 32 10z m15 -21 c-10 -9 -11 -8 -5 6 3
10 9 15 12 12 3 -3 0 -11 -7 -18z m-65 -25 c-3 -3 2 -14 11 -24 16 -18 16 -18
0 -12 -9 3 -17 9 -18 13 0 3 -2 14 -4 24 -2 9 1 14 7 11 5 -3 7 -9 4 -12z
m-35 -39 c13 -17 13 -17 -6 -3 -11 8 -22 16 -24 17 -2 2 0 3 6 3 6 0 17 -8 24
-17z m-19 -17 c7 4 8 2 4 -5 -9 -13 -26 -5 -25 12 0 9 2 8 6 -1 2 -6 10 -9 15
-6z m25 -21 c0 -8 -4 -12 -9 -9 -5 3 -6 10 -3 15 9 13 12 11 12 -6z m-42 -25
c3 -6 -1 -7 -9 -4 -18 7 -21 14 -7 14 6 0 13 -4 16 -10z m-39 -12 c4 -7 3 -10
-1 -5 -5 4 -18 -1 -29 -10 -21 -18 -21 -18 -2 5 22 26 23 26 32 10z m15 -21
c-10 -9 -11 -8 -5 6 3 10 9 15 12 12 3 -3 0 -11 -7 -18z m-65 -25 c-3 -3 2
-14 11 -24 16 -18 16 -18 0 -12 -9 3 -17 9 -18 13 0 3 -2 14 -4 24 -2 9 1 14
7 11 5 -3 7 -9 4 -12z m-35 -39 c13 -17 13 -17 -6 -3 -11 8 -22 16 -24 17 -2
2 0 3 6 3 6 0 17 -8 24 -17z m-19 -17 c7 4 8 2 4 -5 -9 -13 -26 -5 -25 12 0 9
2 8 6 -1 2 -6 10 -9 15 -6z m25 -21 c0 -8 -4 -12 -9 -9 -5 3 -6 10 -3 15 9 13
12 11 12 -6z m-42 -25 c3 -6 -1 -7 -9 -4 -18 7 -21 14 -7 14 6 0 13 -4 16 -10z
m-39 -12 c4 -7 3 -10 -1 -5 -5 4 -18 -1 -29 -10 -21 -18 -21 -18 -2 5 22 26
23 26 32 10z m15 -21 c-10 -9 -11 -8 -5 6 3 10 9 15 12 12 3 -3 0 -11 -7 -18z
m-65 -25 c-3 -3 2 -14 11 -24 16 -18 16 -18 0 -12 -9 3 -17 9 -18 13 0 3 -2
14 -4 24 -2 9 1 14 7 11 5 -3 7 -9 4 -12z m-35 -39 c13 -17 13 -17 -6 -3 -11
8 -22 16 -24 17 -2 2 0 3 6 3 6 0 17 -8 24 -17z m-19 -17 c7 4 8 2 4 -5 -9
-13 -26 -5 -25 12 0 9 2 8 6 -1 2 -6 10 -9 15 -6z m25 -21 c0 -8 -4 -12 -9 -9
-5 3 -6 10 -3 15 9 13 12 11 12 -6z m-42 -25 c3 -6 -1 -7 -9 -4 -18 7 -21 14
-7 14 6 0 13 -4 16 -10z m-39 -12 c4 -7 3 -10 -1 -5 -5 4 -18 -1 -29 -10 -21
-18 -21 -18 -2 5 22 26 23 26 32 10z m15 -21 c-10 -9 -11 -8 -5 6 3 10 9 15
12 12 3 -3 0 -11 -7 -18z m-65 -25 c-3 -3 2 -14 11 -24 16 -18 16 -18 0 -12
-9 3 -17 9 -18 13 0 3 -2 14 -4 24 -2 9 1 14 7 11 5 -3 7 -9 4 -12z m-35 -39
c13 -17 13 -17 -6 -3 -11 8 -22 16 -24 17 -2 2 0 3 6 3 6 0 17 -8 24 -17z
m-19 -17 c7 4 8 2 4 -5 -9 -13 -26 -5 -25 12 0 9 2 8 6 -1 2 -6 10 -9 15 -6z
m25 -21 c0 -8 -4 -12 -9 -9 -5 3 -6 10 -3 15 9 13 12 11 12 -6z m-42 -25 c3
-6 -1 -7 -9 -4 -18 7 -21 14 -7 14 6 0 13 -4 16 -10z m-39 -12 c4 -7 3 -10 -1
-5 -5 4 -18 -1 -29 -10 -21 -18 -21 -18 -2 5 22 26 23 26 32 10z m15 -21 c-10
-9 -11 -8 -5 6 3 10 9 15 12 12 3 -3 0 -11 -7 -18z m-65 -25 c-3 -3 2 -14 11
-24 16 -18 16 -18 0 -12 -9 3 -17 9 -18 13 0 3 -2 14 -4 24 -2 9 1 14 7 11 5
-3 7 -9 4 -12z m-35 -39 c13 -17 13 -17 -6 -3 -11 8 -22 16 -24 17 -2 2 0 3 6
3 6 0 17 -8 24 -17z m-19 -17 c7 4 8 2 4 -5 -9 -13 -26 -5 -25 12 0 9 2 8 6
-1 2 -6 10 -9 15 -6z m25 -21 c0 -8 -4 -12 -9 -9 -5 3 -6 10 -3 15 9 13 12 11
12 -6z m-42 -25 c3 -6 -1 -7 -9 -4 -18 7 -21 14 -7 14 6 0 13 -4 16 -10z m-39
-12 c4 -7 3 -10 -1 -5 -5 4 -18 -1 -29 -10 -21 -18 -21 -18 -2 5 22 26 23 26
32 10z m15 -21 c-10 -9 -11 -8 -5 6 3 10 9 15 12 12 3 -3 0 -11 -7 -18z m-65
-25 c-3 -3 2 -14 11 -24 16 -18 16 -18 0 -12 -9 3 -17 9 -18 13 0 3 -2 14 -4
24 -2 9 1 14 7 11 5 -3 7 -9 4 -12z m-35 -39 c13 -17 13 -17 -6 -3 -11 8 -22
16 -24 17 -2 2 0 3 6 3 6 0 17 -8 24 -17z m-19 -17 c7 4 8 2 4 -5 -9 -13 -26
-5 -25 12 0 9 2 8 6 -1 2 -6 10 -9 15 -6z m25 -21 c0 -8 -4 -12 -9 -9 -5 3 -6
10 -3 15 9 13 12 11 12 -6z m-42 -25 c3 -6 -1 -7 -9 -4 -18 7 -21 14 -7 14 6
0 13 -4 16 -10z m-39 -12 c4 -7 3 -10 -1 -5 -5 4 -18 -1 -29 -10 -21 -18 -21
-18 -2 5 22 26 23 26 32 10z m15 -21 c-10 -9 -11 -8 -5 6 3 10 9 15 12 12 3
-3 0 -11 -7 -18z m-65 -25 c-3 -3 2 -14 11 -24 16 -18 16 -18 0 -12 -9 3 -17
9 -18 13 0 3 -2 14 -4 24 -2 9 1 14 7 11 5 -3 7 -9 4 -12z m-35 -39 c13 -17
13 -17 -6 -3 -11 8 -22 16 -24 17 -2 2 0 3 6 3 6 0 17 -8 24 -17z m-19 -17 c7
4 8 2 4 -5 -9 -13 -26 -5 -25 12 0 9 2 8 6 -1 2 -6 10 -9 15 -6z m25 -21 c0
-8 -4 -12 -9 -9 -5 3 -6 10 -3 15 9 13 12 11 12 -6z m-42 -25 c3 -6 -1 -7 -9
-4 -18 7 -21 14 -7 14 6 0 13 -4 16 -10z m-39 -12 c4 -7 3 -10 -1 -5 -5 4 -18
-1 -29 -10 -21 -18 -21 -18 -2 5 22 26 23 26 32 10z m15 -21 c-10 -9 -11 -8
-5 6 3 10 9 15 12 12 3 -3 0 -11 -7 -18z m-65 -25 c-3 -3 2 -14 11 -24 16 -18
16 -18 0 -12 -9 3 -17 9 -18 13 0 3 -2 14 -4 24 -2 9 1 14 7 11 5 -3 7 -9 4
-12z m-35 -39 c13 -17 13 -17 -6 -3 -11 8 -22 16 -24 17 -2 2 0 3 6 3 6 0 17
-8 24 -17z m-19 -17 c7 4 8 2 4 -5 -9 -13 -26 -5 -25 12 0 9 2 8 6 -1 2 -6 10
-9 15 -6z m25 -21 c0 -8 -4 -12 -9 -9 -5 3 -6 10 -3 15 9 13 12 11 12 -6z
m-42 -25 c3 -6 -1 -7 -9 -4 -18 7 -21 14 -7 14 6 0 13 -4 16 -10z m-39 -12 c4
-7 3 -10 -1 -5 -5 4 -18 -1 -29 -10 -21 -18 -21 -18 -2 5 22 26 23 26 32 10z
m15 -21 c-10 -9 -11 -8 -5 6 3 10 9 15 12 12 3 -3 0 -11 -7 -18z m-65 -25 c-3
-3 2 -14 11 -24 16 -18 16 -18 0 -12 -9 3 -17 9 -18 13 0 3 -2 14 -4 24 -2 9
1 14 7 11 5 -3 7 -9 4 -12z m-35 -39 c13 -17 13 -17 -6 -3 -11 8 -22 16 -24
17 -2 2 0 3 6 3 6 0 17 -8 24 -17z m-19 -17 c7 4 8 2 4 -5 -9 -13 -26 -5 -25
12 0 9 2 8 6 -1 2 -6 10 -9 15 -6z m25 -21 c0 -8 -4 -12 -9 -9 -5 3 -6 10 -3
15 9 13 12 11 12 -6z m-42 -25 c3 -6 -1 -7 -9 -4 -18 7 -21 14 -7 14 6 0 13
-4 16 -10z m-39 -12 c4 -7 3 -10 -1 -5 -5 4 -18 -1 -29 -10 -21 -18 -21 -18
-2 5 22 26 23 26 32 10z m15 -21 c-10 -9 -11 -8 -5 6 3 10 9 15 12 12 3 -3 0
-11 -7 -18z m-65 -25 c-3 -3 2 -14 11 -24 16 -18 16 -18 0 -12 -9 3 -17 9 -18
13 0 3 -2 14 -4 24 -2 9 1 14 7 11 5 -3 7 -9 4 -12z m-35 -39 c13 -17 13 -17
-6 -3 -11 8 -22 16 -24 17 -2 2 0 3 6 3 6 0 17 -8 24 -17z m-19 -17 c7 4 8 2
4 -5 -9 -13 -26 -5 -25 12 0 9 2 8 6 -1 2 -6 10 -9 15 -6z m25 -21 c0 -8 -4
-12 -9 -9 -5 3 -6 10 -3 15 9 13 12 11 12 -6z m-42 -25 c3 -6 -1 -7 -9 -4 -18
7 -21 14 -7 14 6 0 13 -4 16 -10z m-39 -12 c4 -7 3 -10 -1 -5 -5 4 -18 -1 -29
-10 -21 -18 -21 -18 -2 5 22 26 23 26 32 10z m15 -21 c-10 -9 -11 -8 -5 6 3
10 9 15 12 12 3 -3 0 -11 -7 -18z m-65 -25 c-3 -3 2 -14 11 -24 16 -18 16 -18
0 -12 -9 3 -17 9 -18 13 0 3 -2 14 -4 24 -2 9 1 14 7 11 5 -3 7 -9 4 -12z
m-35 -39 c13 -17 13 -17 -6 -3 -11 8 -22 16 -24 17 -2 2 0 3 6 3 6 0 17 -8 24
-17z m-19 -17 c7 4 8 2 4 -5 -9 -13 -26 -5 -25 12 0 9 2 8 6 -1 2 -6 10 -9 15
-6z m25 -21 c0 -8 -4 -12 -9 -9 -5 3 -6 10 -3 15 9 13 12 11 12 -6z m-42 -25
c3 -6 -1 -7 -9 -4 -18 7 -21 14 -7 14 6 0 13 -4 16 -10z m-39 -12 c4 -7 3 -10
-1 -5 -5 4 -18 -1 -29 -10 -21 -18 -21 -18 -2 5 22 26 23 26 32 10z m15 -21
c-10 -9 -11 -8 -5 6 3 10 9 15 12 12 3 -3 0 -11 -7 -18z m-65 -25 c-3 -3 2
-14 11 -24 16 -18 16 -18 0 -12 -9 3 -17 9 -18 13 0 3 -2 14 -4 24 -2 9 1 14
7 11 5 -3 7 -9 4 -12z m-35 -39 c13 -17 13 -17 -6 -3 -11 8 -22 16 -24 17 -2
2 0 3 6 3 6 0 17 -8 24 -17z m-19 -17 c7 4 8 2 4 -5 -9 -13 -26 -5 -25 12 0 9
2 8 6 -1 2 -6 10 -9 15 -6z m25 -21 c0 -8 -4 -12 -9 -9 -5 3 -6 10 -3 15 9 13
12 11 12 -6z m-42 -25 c3 -6 -1 -7 -9 -4 -18 7 -21 14 -7 14 6 0 13 -4 16 -10z
m-39 -12 c4 -7 3 -10 -1 -5 -5 4 -18 -1 -29 -10 -21 -18 -21 -18 -2 5 22 26
23 26 32 10z m15 -21 c-10 -9 -11 -8 -5 6 3 10 9 15 12 12 3 -3 0 -11 -7 -18z
m-65 -25 c-3 -3 2 -14 11 -24 16 -18 16 -18 0 -12 -9 3 -17 9 -18 13 0 3 -2
14 -4 24 -2 9 1 14 7 11 5 -3 7 -9 4 -12z m-35 -39 c13 -17 13 -17 -6 -3 -11
8 -22 16 -24 17 -2 2 0 3 6 3 6 0 17 -8 24 -17z m-19 -17 c7 4 8 2 4 -5 -9
-13 -26 -5 -25 12 0 9 2 8 6 -1 2 -6 10 -9 15 -6z m25 -21 c0 -8 -4 -12 -9 -9
-5 3 -6 10 -3 15 9 13 12 11 12 -6z m-42 -25 c3 -6 -1 -7 -9 -4 -18 7 -21 14
-7 14 6 0 13 -4 16 -10z m-39 -12 c4 -7 3 -10 -1 -5 -5 4 -18 -1 -29 -10 -21
-18 -21 -18 -2 5 22 26 23 26 32 10z m15 -21 c-10 -9 -11 -8 -5 6 3 10 9 15
12 12 3 -3 0 -11 -7 -18z m-65 -25 c-3 -3 2 -14 11 -24 16 -18 16 -18 0 -12
-9 3 -17 9 -18 13 0 3 -2 14 -4 24 -2 9 1 14 7 11 5 -3 7 -9 4 -12z m-35 -39
c13 -17 13 -17 -6 -3 -11 8 -22 16 -24 17 -2 2 0 3 6 3 6 0 17 -8 24 -17z
m-19 -17 c7 4 8 2 4 -5 -9 -13 -26 -5 -25 12 0 9 2 8 6 -1 2 -6 10 -9 15 -6z
m25 -21 c0 -8 -4 -12 -9 -9 -5 3 -6 10 -3 15 9 13 12 11 12 -6z m-42 -25 c3
-6 -1 -7 -9 -4 -18 7 -21 14 -7 14 6 0 13 -4 16 -10z m-39 -12 c4 -7 3 -10 -1
-5 -5 4 -18 -1 -29 -10 -21 -18 -21 -18 -2 5 22 26 23 26 32 10z m15 -21 c-10
-9 -11 -8 -5 6 3 10 9 15 12 12 3 -3 0 -11 -7 -18z m-66 -16 c3 -5 2 -12 -3
-15 -5 -3 -9 1 -9 9 0 17 3 19 12 6z m-2247 -2244 c-1 -2 3 -11 11 -20 9 -11
10 -17 2 -17 -6 0 -11 3 -12 8 0 4 -2 15 -4 25 -2 11 -1 17 2 14 2 -3 3 -7 1
-10z m-27 -44 c13 -17 13 -17 -6 -3 -11 8 -22 16 -24 17 -2 2 0 3 6 3 6 0 17
-8 24 -17z m-19 -17 c7 4 8 2 4 -5 -9 -13 -26 -5 -25 12 0 9 2 8 6 -1 2 -6 10
-9 15 -6z m25 -21 c0 -8 -4 -12 -9 -9 -5 3 -6 10 -3 15 9 13 12 11 12 -6z
m-42 -25 c3 -6 -1 -7 -9 -4 -18 7 -21 14 -7 14 6 0 13 -4 16 -10z m-39 -12 c4
-7 3 -10 -1 -5 -5 4 -18 -1 -29 -10 -21 -18 -21 -18 -2 5 22 26 23 26 32 10z
m15 -21 c-10 -9 -11 -8 -5 6 3 10 9 15 12 12 3 -3 0 -11 -7 -18z m-65 -25 c-3
-3 2 -14 11 -24 16 -18 16 -18 0 -12 -9 3 -17 9 -18 13 0 3 -2 14 -4 24 -2 9
1 14 7 11 5 -3 7 -9 4 -12z m-35 -39 c13 -17 13 -17 -6 -3 -11 8 -22 16 -24
17 -2 2 0 3 6 3 6 0 17 -8 24 -17z m-19 -17 c7 4 8 2 4 -5 -9 -13 -26 -5 -25
12 0 9 2 8 6 -1 2 -6 10 -9 15 -6z m25 -21 c0 -8 -4 -12 -9 -9 -5 3 -6 10 -3
15 9 13 12 11 12 -6z m-42 -25 c3 -6 -1 -7 -9 -4 -18 7 -21 14 -7 14 6 0 13
-4 16 -10z m-39 -12 c4 -7 3 -10 -1 -5 -5 4 -18 -1 -29 -10 -21 -18 -21 -18
-2 5 22 26 23 26 32 10z m15 -21 c-10 -9 -11 -8 -5 6 3 10 9 15 12 12 3 -3 0
-11 -7 -18z m-65 -25 c-3 -3 2 -14 11 -24 16 -18 16 -18 0 -12 -9 3 -17 9 -18
13 0 3 -2 14 -4 24 -2 9 1 14 7 11 5 -3 7 -9 4 -12z m-35 -39 c13 -17 13 -17
-6 -3 -11 8 -22 16 -24 17 -2 2 0 3 6 3 6 0 17 -8 24 -17z m-19 -17 c7 4 8 2
4 -5 -9 -13 -26 -5 -25 12 0 9 2 8 6 -1 2 -6 10 -9 15 -6z m25 -21 c0 -8 -4
-12 -9 -9 -5 3 -6 10 -3 15 9 13 12 11 12 -6z m-42 -25 c3 -6 -1 -7 -9 -4 -18
7 -21 14 -7 14 6 0 13 -4 16 -10z m-39 -12 c4 -7 3 -10 -1 -5 -5 4 -18 -1 -29
-10 -21 -18 -21 -18 -2 5 22 26 23 26 32 10z m15 -21 c-10 -9 -11 -8 -5 6 3
10 9 15 12 12 3 -3 0 -11 -7 -18z m-65 -25 c-3 -3 2 -14 11 -24 16 -18 16 -18
0 -12 -9 3 -17 9 -18 13 0 3 -2 14 -4 24 -2 9 1 14 7 11 5 -3 7 -9 4 -12z
m-35 -39 c13 -17 13 -17 -6 -3 -11 8 -22 16 -24 17 -2 2 0 3 6 3 6 0 17 -8 24
-17z m-19 -17 c7 4 8 2 4 -5 -9 -13 -26 -5 -25 12 0 9 2 8 6 -1 2 -6 10 -9 15
-6z m25 -21 c0 -8 -4 -12 -9 -9 -5 3 -6 10 -3 15 9 13 12 11 12 -6z m-42 -25
c3 -6 -1 -7 -9 -4 -18 7 -21 14 -7 14 6 0 13 -4 16 -10z m-39 -12 c4 -7 3 -10
-1 -5 -5 4 -18 -1 -29 -10 -21 -18 -21 -18 -2 5 22 26 23 26 32 10z m15 -21
c-10 -9 -11 -8 -5 6 3 10 9 15 12 12 3 -3 0 -11 -7 -18z m-65 -25 c-3 -3 2
-14 11 -24 16 -18 16 -18 0 -12 -9 3 -17 9 -18 13 0 3 -2 14 -4 24 -2 9 1 14
7 11 5 -3 7 -9 4 -12z m-35 -39 c13 -17 13 -17 -6 -3 -11 8 -22 16 -24 17 -2
2 0 3 6 3 6 0 17 -8 24 -17z m-19 -17 c7 4 8 2 4 -5 -9 -13 -26 -5 -25 12 0 9
2 8 6 -1 2 -6 10 -9 15 -6z m25 -21 c0 -8 -4 -12 -9 -9 -5 3 -6 10 -3 15 9 13
12 11 12 -6z m-42 -25 c3 -6 -1 -7 -9 -4 -18 7 -21 14 -7 14 6 0 13 -4 16 -10z
m-39 -12 c4 -7 3 -10 -1 -5 -5 4 -18 -1 -29 -10 -21 -18 -21 -18 -2 5 22 26
23 26 32 10z m15 -21 c-10 -9 -11 -8 -5 6 3 10 9 15 12 12 3 -3 0 -11 -7 -18z
m-65 -25 c-3 -3 2 -14 11 -24 16 -18 16 -18 0 -12 -9 3 -17 9 -18 13 0 3 -2
14 -4 24 -2 9 1 14 7 11 5 -3 7 -9 4 -12z m-35 -39 c13 -17 13 -17 -6 -3 -11
8 -22 16 -24 17 -2 2 0 3 6 3 6 0 17 -8 24 -17z m-19 -17 c7 4 8 2 4 -5 -9
-13 -26 -5 -25 12 0 9 2 8 6 -1 2 -6 10 -9 15 -6z m25 -21 c0 -8 -4 -12 -9 -9
-5 3 -6 10 -3 15 9 13 12 11 12 -6z m-42 -25 c3 -6 -1 -7 -9 -4 -18 7 -21 14
-7 14 6 0 13 -4 16 -10z m-39 -12 c4 -7 3 -10 -1 -5 -5 4 -18 -1 -29 -10 -21
-18 -21 -18 -2 5 22 26 23 26 32 10z m15 -21 c-10 -9 -11 -8 -5 6 3 10 9 15
12 12 3 -3 0 -11 -7 -18z m-65 -25 c-3 -3 2 -14 11 -24 16 -18 16 -18 0 -12
-9 3 -17 9 -18 13 0 3 -2 14 -4 24 -2 9 1 14 7 11 5 -3 7 -9 4 -12z m-35 -39
c13 -17 13 -17 -6 -3 -11 8 -22 16 -24 17 -2 2 0 3 6 3 6 0 17 -8 24 -17z
m-19 -17 c7 4 8 2 4 -5 -9 -13 -26 -5 -25 12 0 9 2 8 6 -1 2 -6 10 -9 15 -6z
m25 -21 c0 -8 -4 -12 -9 -9 -5 3 -6 10 -3 15 9 13 12 11 12 -6z m-42 -25 c3
-6 -1 -7 -9 -4 -18 7 -21 14 -7 14 6 0 13 -4 16 -10z m-39 -12 c4 -7 3 -10 -1
-5 -5 4 -18 -1 -29 -10 -21 -18 -21 -18 -2 5 22 26 23 26 32 10z m15 -21 c-10
-9 -11 -8 -5 6 3 10 9 15 12 12 3 -3 0 -11 -7 -18z m-65 -25 c-3 -3 2 -14 11
-24 16 -18 16 -18 0 -12 -9 3 -17 9 -18 13 0 3 -2 14 -4 24 -2 9 1 14 7 11 5
-3 7 -9 4 -12z m-35 -39 c13 -17 13 -17 -6 -3 -11 8 -22 16 -24 17 -2 2 0 3 6
3 6 0 17 -8 24 -17z m-19 -17 c7 4 8 2 4 -5 -9 -13 -26 -5 -25 12 0 9 2 8 6
-1 2 -6 10 -9 15 -6z m25 -21 c0 -8 -4 -12 -9 -9 -5 3 -6 10 -3 15 9 13 12 11
12 -6z m-42 -25 c3 -6 -1 -7 -9 -4 -18 7 -21 14 -7 14 6 0 13 -4 16 -10z m-39
-12 c4 -7 3 -10 -1 -5 -5 4 -18 -1 -29 -10 -21 -18 -21 -18 -2 5 22 26 23 26
32 10z m15 -21 c-10 -9 -11 -8 -5 6 3 10 9 15 12 12 3 -3 0 -11 -7 -18z m-65
-25 c-3 -3 2 -14 11 -24 16 -18 16 -18 0 -12 -9 3 -17 9 -18 13 0 3 -2 14 -4
24 -2 9 1 14 7 11 5 -3 7 -9 4 -12z m-35 -39 c13 -17 13 -17 -6 -3 -11 8 -22
16 -24 17 -2 2 0 3 6 3 6 0 17 -8 24 -17z m-19 -17 c7 4 8 2 4 -5 -9 -13 -26
-5 -25 12 0 9 2 8 6 -1 2 -6 10 -9 15 -6z m25 -21 c0 -8 -4 -12 -9 -9 -5 3 -6
10 -3 15 9 13 12 11 12 -6z m-42 -25 c3 -6 -1 -7 -9 -4 -18 7 -21 14 -7 14 6
0 13 -4 16 -10z m-39 -12 c4 -7 3 -10 -1 -5 -5 4 -18 -1 -29 -10 -21 -18 -21
-18 -2 5 22 26 23 26 32 10z m15 -21 c-10 -9 -11 -8 -5 6 3 10 9 15 12 12 3
-3 0 -11 -7 -18z m-65 -25 c-3 -3 2 -14 11 -24 16 -18 16 -18 0 -12 -9 3 -17
9 -18 13 0 3 -2 14 -4 24 -2 9 1 14 7 11 5 -3 7 -9 4 -12z m-35 -39 c13 -17
13 -17 -6 -3 -11 8 -22 16 -24 17 -2 2 0 3 6 3 6 0 17 -8 24 -17z m-19 -17 c7
4 8 2 4 -5 -9 -13 -26 -5 -25 12 0 9 2 8 6 -1 2 -6 10 -9 15 -6z m25 -21 c0
-8 -4 -12 -9 -9 -5 3 -6 10 -3 15 9 13 12 11 12 -6z m-42 -25 c3 -6 -1 -7 -9
-4 -18 7 -21 14 -7 14 6 0 13 -4 16 -10z m-39 -12 c4 -7 3 -10 -1 -5 -5 4 -18
-1 -29 -10 -21 -18 -21 -18 -2 5 22 26 23 26 32 10z m15 -21 c-10 -9 -11 -8
-5 6 3 10 9 15 12 12 3 -3 0 -11 -7 -18z m-65 -25 c-3 -3 2 -14 11 -24 16 -18
16 -18 0 -12 -9 3 -17 9 -18 13 0 3 -2 14 -4 24 -2 9 1 14 7 11 5 -3 7 -9 4
-12z m-35 -39 c13 -17 13 -17 -6 -3 -11 8 -22 16 -24 17 -2 2 0 3 6 3 6 0 17
-8 24 -17z m-19 -17 c7 4 8 2 4 -5 -9 -13 -26 -5 -25 12 0 9 2 8 6 -1 2 -6 10
-9 15 -6z m25 -21 c0 -8 -4 -12 -9 -9 -5 3 -6 10 -3 15 9 13 12 11 12 -6z
m-42 -25 c3 -6 -1 -7 -9 -4 -18 7 -21 14 -7 14 6 0 13 -4 16 -10z m-39 -12 c4
-7 3 -10 -1 -5 -5 4 -18 -1 -29 -10 -21 -18 -21 -18 -2 5 22 26 23 26 32 10z
m15 -21 c-10 -9 -11 -8 -5 6 3 10 9 15 12 12 3 -3 0 -11 -7 -18z m-65 -25 c-3
-3 2 -14 11 -24 16 -18 16 -18 0 -12 -9 3 -17 9 -18 13 0 3 -2 14 -4 24 -2 9
1 14 7 11 5 -3 7 -9 4 -12z m-35 -39 c13 -17 13 -17 -6 -3 -11 8 -22 16 -24
17 -2 2 0 3 6 3 6 0 17 -8 24 -17z m-19 -17 c7 4 8 2 4 -5 -9 -13 -26 -5 -25
12 0 9 2 8 6 -1 2 -6 10 -9 15 -6z m25 -21 c0 -8 -4 -12 -9 -9 -5 3 -6 10 -3
15 9 13 12 11 12 -6z m-42 -25 c3 -6 -1 -7 -9 -4 -18 7 -21 14 -7 14 6 0 13
-4 16 -10z m-39 -12 c4 -7 3 -10 -1 -5 -5 4 -18 -1 -29 -10 -21 -18 -21 -18
-2 5 22 26 23 26 32 10z m15 -21 c-10 -9 -11 -8 -5 6 3 10 9 15 12 12 3 -3 0
-11 -7 -18z m-65 -25 c-3 -3 2 -14 11 -24 16 -18 16 -18 0 -12 -9 3 -17 9 -18
13 0 3 -2 14 -4 24 -2 9 1 14 7 11 5 -3 7 -9 4 -12z m-35 -39 c13 -17 13 -17
-6 -3 -11 8 -22 16 -24 17 -2 2 0 3 6 3 6 0 17 -8 24 -17z m-19 -17 c7 4 8 2
4 -5 -9 -13 -26 -5 -25 12 0 9 2 8 6 -1 2 -6 10 -9 15 -6z m25 -21 c0 -8 -4
-12 -9 -9 -5 3 -6 10 -3 15 9 13 12 11 12 -6z m-42 -25 c3 -6 -1 -7 -9 -4 -18
7 -21 14 -7 14 6 0 13 -4 16 -10z m-39 -12 c4 -7 3 -10 -1 -5 -5 4 -18 -1 -29
-10 -21 -18 -21 -18 -2 5 22 26 23 26 32 10z m15 -21 c-10 -9 -11 -8 -5 6 3
10 9 15 12 12 3 -3 0 -11 -7 -18z m-65 -25 c-3 -3 2 -14 11 -24 16 -18 16 -18
0 -12 -9 3 -17 9 -18 13 0 3 -2 14 -4 24 -2 9 1 14 7 11 5 -3 7 -9 4 -12z
m-35 -39 c13 -17 13 -17 -6 -3 -11 8 -22 16 -24 17 -2 2 0 3 6 3 6 0 17 -8 24
-17z m-19 -17 c7 4 8 2 4 -5 -9 -13 -26 -5 -25 12 0 9 2 8 6 -1 2 -6 10 -9 15
-6z m25 -21 c0 -8 -4 -12 -9 -9 -5 3 -6 10 -3 15 9 13 12 11 12 -6z m-42 -25
c3 -6 -1 -7 -9 -4 -18 7 -21 14 -7 14 6 0 13 -4 16 -10z m-39 -12 c4 -7 3 -10
-1 -5 -5 4 -18 -1 -29 -10 -21 -18 -21 -18 -2 5 22 26 23 26 32 10z m15 -21
c-10 -9 -11 -8 -5 6 3 10 9 15 12 12 3 -3 0 -11 -7 -18z m-65 -25 c-3 -3 2
-14 11 -24 16 -18 16 -18 0 -12 -9 3 -17 9 -18 13 0 3 -2 14 -4 24 -2 9 1 14
7 11 5 -3 7 -9 4 -12z m-35 -39 c13 -17 13 -17 -6 -3 -11 8 -22 16 -24 17 -2
2 0 3 6 3 6 0 17 -8 24 -17z m-19 -17 c7 4 8 2 4 -5 -9 -13 -26 -5 -25 12 0 9
2 8 6 -1 2 -6 10 -9 15 -6z m25 -21 c0 -8 -4 -12 -9 -9 -5 3 -6 10 -3 15 9 13
12 11 12 -6z m-42 -25 c3 -6 -1 -7 -9 -4 -18 7 -21 14 -7 14 6 0 13 -4 16 -10z
m-24 -33 c-10 -9 -11 -8 -5 6 3 10 9 15 12 12 3 -3 0 -11 -7 -18z"/>
<path d="M4455 7790 c-3 -6 1 -7 9 -4 18 7 21 14 7 14 -6 0 -13 -4 -16 -10z"/>
<path d="M5155 6968 c-293 -33 -597 -134 -848 -281 -306 -181 -590 -468 -766
-776 -289 -504 -359 -1123 -190 -1676 17 -55 34 -103 38 -107 3 -4 620 606
1371 1357 1315 1315 1363 1364 1338 1374 -126 48 -334 94 -497 111 -121 12
-332 11 -446 -2z"/>
<path d="M2426 5762 c-3 -5 1 -9 9 -9 8 0 12 4 9 9 -3 4 -7 8 -9 8 -2 0 -6 -4
-9 -8z"/>
<path d="M2425 5730 c6 -10 -7 -14 -32 -11 -6 1 -14 -2 -16 -6 -3 -5 10 -9 29
-9 27 -1 34 2 34 17 0 11 -5 19 -11 19 -5 0 -7 -4 -4 -10z"/>
</g>
</svg>
