<?xml version="1.0" encoding="UTF-8"?>
<svg width="16px" height="16px" viewBox="0 0 16 16" version="1.1" xmlns="http://www.w3.org/2000/svg" xmlns:xlink="http://www.w3.org/1999/xlink">
    <title>Favicon Export/safari-pinned-tab</title>
    <g id="Favicon" stroke="none" stroke-width="1" fill="none" fill-rule="evenodd">
        <g id="Safari-Pinned-Tab" transform="translate(-150.000000, -424.000000)" fill="#000000">
            <g id="Useless-Layers" transform="translate(149.000000, 150.000000)">
                <g id="Export" transform="translate(1.000000, 274.000000)">
                    <path d="M3.75625,3.75625 C6.43072917,1.08125 10.7677083,1.08125 13.4427083,3.75625 L14.25,4.56354167 L13.0890625,5.72395833 L12.3526042,4.9875 C12.1494792,4.784375 11.8197917,4.784375 11.6161458,4.9875 C11.4125,5.190625 11.4125,5.5203125 11.6161458,5.72395833 L12.3520833,6.46145833 L10.8791667,7.934375 L10.1427083,7.19791667 C9.93958333,6.99427083 9.60989583,6.99479167 9.40625,7.19791667 C9.20260417,7.40104167 9.20260417,7.73072917 9.40625,7.934375 L10.1427083,8.67083333 L8.66979167,10.14375 L7.93333333,9.40729167 C7.73020833,9.20364583 7.40052083,9.20416667 7.196875,9.40729167 C6.99322917,9.61041667 6.99322917,9.94010417 7.196875,10.14375 L7.93333333,10.8802083 L6.46041667,12.353125 L5.72395833,11.6166667 C5.52083333,11.4130208 5.19114583,11.4135417 4.9875,11.6166667 C4.78385417,11.8197917 4.78385417,12.1494792 4.9875,12.353125 L5.72395833,13.0895833 L4.56354167,14.25 L3.75625,13.4427083 C1.08125,10.7682292 1.08125,6.43125 3.75625,3.75625 Z M10.2583333,4.13541667 C8.565625,3.509375 6.58697917,3.87135417 5.22916667,5.22916667 C3.87135417,6.58697917 3.509375,8.565625 4.13541667,10.2583333 Z" id="Safari-Pinned-Tab"></path>
                </g>
            </g>
        </g>
    </g>
</svg>